<?xml version="1.0" encoding="UTF-8"?>
<svg id="Camada_2" data-name="Camada 2" xmlns="http://www.w3.org/2000/svg" viewBox="0 0 512 512">
  <defs>
    <style>
      .cls-1 {
        fill: #4e4898;
      }

      .cls-2 {
        fill: #fff;
      }
    </style>
  </defs>
  <path class="cls-1" d="M385.09,388.18l.65-5.58c.11-.98,9.05-78.05,14.03-119.57l-56.17,93.48c-11.74,19.53-33.18,31.66-55.96,31.66h-54.07l.8-5.7c.13-.92,10.05-71.34,15.65-110.63-13.71,22.56-25.3,41.84-52.16,86.56-1.79,2.99-3.29,5.67-4.6,8.03-8.16,14.64-12.76,21.12-36.4,21.12-46.39,0-69.48-44.45-75.81-70.72-2.02-8.39-3.38-18.62.12-23.86-2.16-1.36-3.96-2.67-5.41-3.82-10.62-8.42-22.2-35.26-26.69-46.4-3.42-8.49-14.36-36.81-11.6-44.73.47-1.36,1.3-2.45,2.36-3.17l-.27-.27c-21.97-21.97-30.86-38.56-26.42-49.29,3.01-7.27,11.36-10.95,24.83-10.95,31.93,0,86.13-2.34,138.55-4.61,39.55-1.71,76.91-3.32,101.29-3.77,9.03-.07,17.1-.28,24.22-.46,6.81-.17,12.69-.32,17.89-.32,14.55,0,23.89,1.17,28.56,7.18,3.95,5.07,2.91,11.54,1.78,15.97-7.68,30.27-13.67,54.12-20.03,80.44,7.58-14.65,16.23-33.54,20.6-43.08,1-2.18,1.93-4.21,2.78-6.05,14.2-30.82,26.46-57.43,69.05-58.74,27.38-.84,47.64-1.6,61.05-2.11,4.57-.17,8.28-.31,11.11-.41l5.48-.19-.32,5.48c-.73,12.56-9.78,118.32-17.25,204.83-1.41,16.32-8.83,31.41-20.91,42.49-12.07,11.07-27.75,17.17-44.13,17.17h-32.61Z"/>
  <path class="cls-2" d="M495,123.4c-.76,13.17-10.95,131.82-17.24,204.69-2.69,31.17-28.78,55.09-60.06,55.09h-27s14.36-123.86,16.9-142.9l-68.29,113.66c-10.9,18.14-30.51,29.24-51.68,29.24h-48.31s16.81-119.32,19.12-134.76c-21.04,34.46-30.52,50.24-64.92,107.49-11.63,19.35-11.02,26.65-36.68,26.65-60.36,0-79.96-82.89-70.59-87.68.09-.04.18-.06.29-.06,2.16,0,8.69,8.64,26.71,8.64,11.7,0,28.23-3.64,51.56-15.63-17.47,8.12-32.35,10.97-44.63,10.97-22.4,0-36.16-9.45-41.33-13.55-16.4-13.01-42.67-86.38-35.77-86.38.3,0,.66.14,1.08.42,8.98,5.99,18.7,20.01,64.57,20.01,17.14,0,39.32-1.96,68.41-7.02-21.24,2.89-39,4.11-53.92,4.11-52.16,0-69.7-14.88-80.14-25.32-27.02-27.02-39.61-51.7-5.12-51.7,56.36,0,183.58-7.35,239.93-8.38,17.48-.14,31.41-.78,42.03-.78,21.21,0,29.14,2.57,25.5,16.92-10.51,41.41-17.53,69.63-26.19,106.17,6.71,0,28.79-49.53,38.93-71.54,14.74-32.01,26.13-54.65,64.66-55.83,36.84-1.13,61.14-2.13,72.18-2.52M505.62,113.02l-10.97.38c-2.84.1-6.54.24-11.11.41-13.41.51-33.66,1.27-61.03,2.11-45.68,1.4-59.16,30.66-73.43,61.64-.71,1.54-1.47,3.21-2.29,4.98,2.6-10.37,5.33-21.18,8.33-32.98.8-3.14,3.22-12.68-2.68-20.27-6.54-8.41-19.11-9.11-32.5-9.11-5.27,0-11.18.15-18.02.33-7.1.18-15.15.39-24.09.46h-.05s-.05,0-.05,0c-24.45.45-61.84,2.06-101.42,3.77-52.36,2.26-106.51,4.6-138.33,4.6-15.68,0-25.59,4.72-29.45,14.04-3.18,7.68-1.46,16.78,5.26,27.83,4.34,7.14,10.87,15.21,19.42,24.04-.17.36-.32.74-.46,1.12-1.24,3.56-1.34,8.5,2.21,21.05,2.24,7.91,5.6,17.57,9.48,27.19,5.76,14.31,17.08,39.63,28.22,48.46.69.55,1.45,1.13,2.29,1.73-1.55,5.58-1.14,13.33,1.24,23.2,1.96,8.15,8.24,29.08,24.08,47.4,15.37,17.76,34.93,27.15,56.58,27.15,12.9,0,20.72-1.74,27-6.01,6.33-4.3,9.61-10.2,13.77-17.68,1.3-2.33,2.77-4.97,4.48-7.81,18.55-30.88,29.83-49.64,39.54-65.72-5.48,38.64-12.11,85.69-12.21,86.44l-1.61,11.4h59.82c12.11,0,24.08-3.15,34.61-9.11,10.54-5.96,19.4-14.6,25.64-24.98l44.16-73.5c-4.84,40.95-10.89,93.12-11.28,96.44l-1.29,11.15h38.23c17.64,0,34.51-6.57,47.51-18.49,13-11.92,20.99-28.17,22.51-45.74,7.47-86.56,16.53-192.38,17.26-204.97l.63-10.96h0Z"/>
</svg>