<?xml version="1.0" encoding="UTF-8"?>
<svg id="Camada_2" data-name="Camada 2" xmlns="http://www.w3.org/2000/svg" viewBox="0 0 512 512">
  <defs>
    <style>
      .cls-1 {
        fill: #4e4999;
      }
    </style>
  </defs>
  <path class="cls-1" d="M477.75,132.78c-.71,12.22-10.16,122.31-16,189.92-2.5,28.92-26.7,51.11-55.72,51.11h-25.05s13.32-114.92,15.68-132.59l-63.37,105.46c-10.11,16.83-28.31,27.13-47.95,27.13h-44.83s15.6-110.71,17.74-125.03c-19.52,31.98-28.32,46.61-60.23,99.73-10.79,17.96-10.23,25.72-34.03,25.72-56,0-74.19-77.9-65.49-82.35.08-.04.17-.06.27-.06,2,0,8.06,8.02,24.78,8.02,10.85,0,26.19-3.37,47.84-14.5-16.21,7.54-30.02,10.18-41.41,10.18-20.79,0-33.55-8.77-38.34-12.57-15.22-12.07-39.59-80.14-33.18-80.14.28,0,.61.13,1,.39,8.33,5.56,17.35,18.56,59.91,18.56,15.9,0,36.48-1.81,63.47-6.51-19.7,2.68-36.18,3.81-50.03,3.81-48.4,0-64.67-13.81-74.36-23.49-25.07-25.07-36.75-47.97-4.75-47.97,52.29,0,170.33-6.82,222.62-7.77,16.21-.13,29.15-.73,38.99-.73,19.68,0,27.03,2.39,23.66,15.7-9.75,38.42-16.27,64.6-24.3,98.51,6.23,0,26.71-45.96,36.12-66.38,13.68-29.7,24.24-50.71,59.99-51.8,34.18-1.05,56.72-1.98,66.97-2.34M504.3,106.83l-27.42.96c-2.64.09-6.09.22-10.35.38-12.42.47-31.18,1.18-56.52,1.95-21.14.65-38.09,6.91-51.66,19.1-.16-.21-.31-.42-.47-.62-11.3-14.52-30.87-14.52-42.57-14.52-5.09,0-10.67.14-17.12.31-6.53.17-13.92.36-22.07.42h-.13s-.13,0-.13,0c-22.88.42-57.66,1.92-94.49,3.51-48.42,2.09-98.48,4.26-127.66,4.26-8.71,0-15.98,1.23-22.22,3.77-9.14,3.72-16.11,10.45-19.63,18.95-4.94,11.92-2.93,25.38,5.97,40.01,3.59,5.91,8.48,12.3,14.57,19.09-.11,5.26.99,11.47,3.37,19.89,2.22,7.86,5.54,17.39,9.34,26.82,8.9,22.12,17.74,37.91,26.33,47.07-.07,5.69.77,12.18,2.48,19.28,4.45,18.47,13.82,37.02,25.71,50.89,17.32,20.2,39.58,30.88,64.36,30.88,10.08,0,23.06-1,34.08-8.81,8.75-6.2,13.07-14.09,17.24-21.72.3-.55.6-1.1.91-1.66-.25,1.76-.41,2.89-.46,3.28l-4.01,28.49h73.6c13.94,0,27.72-3.63,39.86-10.49,12.13-6.86,22.34-16.81,29.52-28.76l3.4-5.65c-1.11,9.53-1.86,15.97-1.98,17.03l-3.23,27.88h53.12c20.31,0,39.74-7.56,54.71-21.29,14.97-13.73,24.17-32.44,25.92-52.67,6.94-80.41,15.36-178.75,16.05-190.62l1.59-27.39h0Z"/>
</svg>